<svg width="302" height="89" viewBox="0 0 302 89" fill="none" xmlns="http://www.w3.org/2000/svg">
<path d="M291.417 89H10.5848C7.78078 88.9994 5.09156 87.8928 3.10718 85.923C1.12279 83.9531 0.00533519 81.281 0 78.4929V10.5182C0.00414807 7.72874 1.12087 5.05477 3.10519 3.08292C5.08951 1.11107 7.77939 0.00235444 10.5848 0H291.415C294.22 0.00352926 296.909 1.11262 298.894 3.08422C300.878 5.05581 301.995 7.7291 302 10.5182V78.4929C302.004 84.2884 297.248 89 291.417 89Z" fill="#304A60"/>
<path d="M63.2558 44.3125C63.1901 37.1114 69.2315 33.608 69.5078 33.4449C66.0863 28.5228 60.783 27.8503 58.9194 27.7967C54.4654 27.3342 50.1449 30.4264 47.876 30.4264C45.5618 30.4264 42.0678 27.8414 38.3021 27.9173C33.4563 27.9911 28.923 30.7593 26.4367 35.0581C21.3056 43.8232 25.1324 56.7038 30.0484 63.7887C32.5075 67.2608 35.3811 71.1328 39.1422 70.9965C42.8219 70.849 44.1964 68.684 48.6368 68.684C53.0366 68.684 54.3273 70.9965 58.1631 70.9094C62.1122 70.849 64.5986 67.4239 66.9716 63.9228C69.8135 59.948 70.9547 56.0291 71 55.828C70.9094 55.7967 63.3328 52.9413 63.2558 44.3125ZM56.0097 23.136C57.9888 20.6939 59.3429 17.3715 58.967 14C56.1025 14.1251 52.5203 15.955 50.4574 18.3434C48.6323 20.4481 47.0019 23.8979 47.4231 27.142C50.6408 27.3789 53.9446 25.5401 56.0097 23.136Z" fill="white"/>
<path d="M115.806 70.8915H110.722L107.938 62.1433H98.2583L95.6056 70.8915H90.6562L100.248 41.1088H106.171L115.806 70.8915ZM107.098 58.4731L104.58 50.6962C104.313 49.9018 103.812 48.0308 103.078 45.0857H102.988C102.693 46.3524 102.22 48.2233 101.574 50.6962L99.0977 58.4731H107.098ZM140.425 59.8897C140.425 63.5421 139.434 66.429 137.448 68.5484C135.671 70.435 133.461 71.3771 130.827 71.3771C127.981 71.3771 125.935 70.3633 124.693 68.3313V79.5994H119.92V56.4746C119.92 54.1807 119.86 51.8286 119.744 49.4161H123.941L124.207 52.82H124.297C125.888 50.2554 128.304 48.973 131.545 48.973C134.079 48.973 136.195 49.9734 137.887 51.9763C139.577 53.9838 140.425 56.6201 140.425 59.8897ZM135.563 60.0643C135.563 57.974 135.093 56.2508 134.149 54.8924C133.117 53.4802 131.731 52.773 129.994 52.773C128.816 52.773 127.746 53.1669 126.791 53.9435C125.832 54.7268 125.206 55.7495 124.912 57.0162C124.781 57.4899 124.707 57.9774 124.691 58.4686V62.0516C124.691 63.6114 125.17 64.9296 126.128 66.0083C127.086 67.0825 128.331 67.6218 129.862 67.6218C131.659 67.6218 133.058 66.9259 134.059 65.545C135.062 64.1597 135.563 62.3336 135.563 60.0643ZM165.132 59.8897C165.132 63.5421 164.14 66.429 162.155 68.5484C160.375 70.435 158.168 71.3771 155.531 71.3771C152.686 71.3771 150.64 70.3633 149.397 68.3313V79.5994H144.625V56.4746C144.625 54.1807 144.564 51.8286 144.448 49.4161H148.645L148.912 52.82H149.001C150.591 50.2554 153.006 48.973 156.25 48.973C158.781 48.973 160.897 49.9734 162.593 51.9763C164.281 53.9838 165.132 56.6201 165.132 59.8897ZM160.268 60.0643C160.268 57.974 159.795 56.2508 158.851 54.8924C157.819 53.4802 156.438 52.773 154.7 52.773C153.523 52.773 152.453 53.1669 151.493 53.9435C150.535 54.7268 149.91 55.7495 149.617 57.0162C149.471 57.607 149.393 58.0882 149.393 58.4686V62.0516C149.393 63.6114 149.874 64.9296 150.828 66.0083C151.786 67.0803 153.031 67.6218 154.566 67.6218C156.366 67.6218 157.765 66.9259 158.763 65.545C159.766 64.1597 160.268 62.3336 160.268 60.0643ZM192.755 62.5372C192.755 65.0728 191.869 67.134 190.107 68.7252C188.169 70.4618 185.462 71.3324 181.993 71.3324C178.787 71.3324 176.217 70.7147 174.279 69.4771L175.382 65.5003C177.475 66.7401 179.774 67.3578 182.277 67.3578C184.077 67.3578 185.476 66.9505 186.474 66.1426C187.475 65.3324 187.981 64.2493 187.981 62.8975C187.981 61.6868 187.562 60.673 186.74 59.8472C185.914 59.0236 184.549 58.256 182.631 57.5511C177.415 55.6063 174.805 52.7619 174.805 49.02C174.805 46.5762 175.727 44.5754 177.567 43.0111C179.407 41.449 181.847 40.668 184.882 40.668C187.593 40.668 189.852 41.1402 191.645 42.0824L190.447 45.9719C188.76 45.0588 186.855 44.6023 184.724 44.6023C183.04 44.6023 181.719 45.0163 180.775 45.8399C179.98 46.5762 179.577 47.4736 179.577 48.5388C179.577 49.7138 180.036 50.6895 180.949 51.4549C181.742 52.1598 183.188 52.9275 185.279 53.751C187.844 54.785 189.729 55.989 190.935 57.372C192.151 58.7551 192.755 60.4806 192.755 62.5372ZM208.575 52.9968H203.314V63.4235C203.314 66.0754 204.241 67.3981 206.099 67.3981C206.952 67.3981 207.659 67.3264 208.219 67.1765L208.351 70.7997C207.411 71.1511 206.173 71.3279 204.64 71.3279C202.755 71.3279 201.282 70.7527 200.219 69.6024C199.16 68.4521 198.627 66.5253 198.627 63.8129V52.9879H195.493V49.4072H198.627V45.4751L203.314 44.0607V49.4072H208.575V52.9968ZM232.263 59.977C232.263 63.278 231.318 65.9882 229.434 68.1075C227.461 70.2895 224.838 71.3771 221.567 71.3771C218.411 71.3771 215.902 70.332 214.03 68.244C212.159 66.1515 211.223 63.5152 211.223 60.3351C211.223 57.0072 212.19 54.2814 214.118 52.1621C216.049 50.0405 218.651 48.9797 221.921 48.9797C225.073 48.9797 227.605 50.0271 229.521 52.1173C231.352 54.1449 232.263 56.7633 232.263 59.977ZM227.316 60.0867C227.316 58.1195 226.891 56.4321 226.038 55.02C225.037 53.3146 223.604 52.462 221.749 52.462C219.837 52.462 218.371 53.3146 217.372 55.02C216.517 56.4321 216.092 58.1486 216.092 60.1762C216.092 62.1456 216.517 63.8375 217.372 65.2451C218.404 66.9505 219.844 67.8031 221.708 67.8031C223.533 67.8031 224.963 66.9326 225.997 65.2026C226.875 63.7569 227.316 62.0583 227.316 60.0867ZM247.783 53.6123C247.286 53.5227 246.783 53.4785 246.278 53.4802C244.6 53.4802 243.301 54.1113 242.388 55.3825C241.595 56.5015 241.197 57.9159 241.197 59.6234V70.8915H236.424V56.1792C236.429 53.9248 236.382 51.6707 236.286 49.4184H240.443L240.617 53.5272H240.749C241.255 52.1151 242.048 50.976 243.136 50.1233C244.131 49.3783 245.341 48.9748 246.585 48.973C247.026 48.973 247.425 49.0043 247.778 49.0603L247.783 53.6123ZM269.127 59.1378C269.139 59.8631 269.081 60.5879 268.953 61.3019H254.635C254.689 63.4235 255.383 65.0482 256.712 66.1672C257.919 67.1653 259.479 67.6666 261.395 67.6666C263.515 67.6666 265.449 67.3309 267.189 66.6528L267.936 69.9628C265.904 70.849 263.504 71.2899 260.735 71.2899C257.404 71.2899 254.789 70.3096 252.887 68.3537C250.988 66.3955 250.037 63.7636 250.037 60.4671C250.037 57.231 250.921 54.5343 252.692 52.3836C254.545 50.0875 257.05 48.9394 260.202 48.9394C263.298 48.9394 265.642 50.0875 267.233 52.3836C268.494 54.2031 269.127 56.459 269.127 59.1378ZM264.576 57.9002C264.61 56.4836 264.296 55.2639 263.649 54.2322C262.823 52.9028 261.552 52.2404 259.848 52.2404C258.288 52.2404 257.017 52.8872 256.05 54.1852C255.255 55.2169 254.783 56.4567 254.637 57.8957L264.576 57.9002Z" fill="white"/>
<path d="M96.8809 30.5796C95.5534 30.5796 94.4051 30.5147 93.4492 30.4051V16.0061C94.7861 15.7996 96.137 15.6979 97.4898 15.7017C102.963 15.7017 105.484 18.394 105.484 22.7826C105.484 27.8449 102.506 30.5796 96.8809 30.5796ZM97.6823 17.548C96.9436 17.548 96.3145 17.5928 95.7929 17.7002V28.6461C96.075 28.6908 96.6167 28.711 97.3778 28.711C100.964 28.711 103.005 26.6699 103.005 22.8475C103.005 19.4391 101.159 17.548 97.6823 17.548ZM113.339 30.6893C110.254 30.6893 108.255 28.3865 108.255 25.26C108.255 22.0016 110.296 19.6786 113.513 19.6786C116.553 19.6786 118.597 21.8718 118.597 25.0877C118.597 28.3864 116.49 30.6893 113.339 30.6893ZM113.428 21.3929C111.733 21.3929 110.648 22.9773 110.648 25.1929C110.648 27.3659 111.756 28.9504 113.406 28.9504C115.055 28.9504 116.164 27.2563 116.164 25.1481C116.164 22.9997 115.078 21.3929 113.428 21.3929ZM136.187 19.8957L132.885 30.4498H130.734L129.366 25.8665C129.026 24.7454 128.743 23.6078 128.518 22.4581H128.473C128.301 23.6084 127.974 24.761 127.627 25.8665L126.172 30.4498H123.998L120.891 19.8957H123.302L124.498 24.9131C124.78 26.1082 125.017 27.2361 125.214 28.3014H125.259C125.431 27.4129 125.713 26.3029 126.127 24.9355L127.627 19.8979H129.539L130.974 24.8281C131.321 26.0232 131.603 27.1959 131.822 28.3036H131.885C132.037 27.2182 132.276 26.0657 132.601 24.8281L133.884 19.8979L136.187 19.8957ZM148.342 30.4498H145.996V24.3895C145.996 22.523 145.28 21.5876 143.867 21.5876C142.477 21.5876 141.522 22.7826 141.522 24.1724V30.4498H139.176V22.9124C139.176 21.9792 139.153 20.9788 139.088 19.8934H141.152L141.262 21.5227H141.327C141.958 20.3947 143.238 19.6786 144.673 19.6786C146.89 19.6786 148.345 21.3727 148.345 24.1299L148.342 30.4498ZM154.812 30.4498H152.463V15.0527H154.812V30.4498ZM163.365 30.6893C160.283 30.6893 158.281 28.3865 158.281 25.26C158.281 22.0016 160.323 19.6786 163.537 19.6786C166.58 19.6786 168.621 21.8718 168.621 25.0877C168.623 28.3864 166.515 30.6893 163.365 30.6893ZM163.452 21.3929C161.758 21.3929 160.672 22.9773 160.672 25.1929C160.672 27.3659 161.782 28.9504 163.428 28.9504C165.08 28.9504 166.186 27.2563 166.186 25.1481C166.188 22.9997 165.104 21.3929 163.452 21.3929ZM177.871 30.4498L177.701 29.2346H177.638C176.922 30.2126 175.876 30.6893 174.551 30.6893C172.659 30.6893 171.316 29.3644 171.316 27.583C171.316 24.9781 173.575 23.6308 177.486 23.6308V23.4361C177.486 22.0463 176.749 21.3503 175.294 21.3503C174.253 21.3503 173.34 21.6122 172.536 22.1336L172.059 20.5917C173.035 19.9829 174.253 19.6786 175.684 19.6786C178.442 19.6786 179.834 21.1332 179.834 24.0448V27.9321C179.834 28.9974 179.881 29.8232 179.986 30.4521L177.871 30.4498ZM177.548 25.1929C174.943 25.1929 173.635 25.824 173.635 27.3212C173.635 28.429 174.309 28.9706 175.245 28.9706C176.438 28.9706 177.548 28.0597 177.548 26.8221V25.1929ZM191.226 30.4498L191.116 28.7557H191.051C190.377 30.0358 189.245 30.6893 187.662 30.6893C185.117 30.6893 183.232 28.4514 183.232 25.3026C183.232 22.0016 185.186 19.6763 187.855 19.6763C189.267 19.6763 190.268 20.153 190.832 21.1109H190.879V15.0527H193.227V27.6054C193.227 28.6259 193.252 29.5815 193.314 30.4498H191.226ZM190.879 24.2395C190.879 22.7625 189.901 21.5025 188.407 21.5025C186.668 21.5025 185.605 23.0445 185.605 25.2153C185.605 27.3436 186.708 28.8005 188.36 28.8005C189.836 28.8005 190.879 27.5181 190.879 25.9986V24.2395ZM208.115 30.6893C205.033 30.6893 203.034 28.3865 203.034 25.26C203.034 22.0016 205.075 19.6786 208.29 19.6786C211.332 19.6786 213.374 21.8718 213.374 25.0877C213.376 28.3864 211.269 30.6893 208.115 30.6893ZM208.203 21.3929C206.51 21.3929 205.425 22.9773 205.425 25.1929C205.425 27.3659 206.533 28.9504 208.18 28.9504C209.832 28.9504 210.938 27.2563 210.938 25.1481C210.943 22.9997 209.857 21.3929 208.203 21.3929ZM225.99 30.4498H223.642V24.3895C223.642 22.523 222.925 21.5876 221.513 21.5876C220.123 21.5876 219.169 22.7826 219.169 24.1724V30.4498H216.821V22.9124C216.821 21.9792 216.799 20.9788 216.734 19.8934H218.798L218.907 21.5227H218.972C219.601 20.3947 220.884 19.6763 222.317 19.6763C224.533 19.6763 225.99 21.3705 225.99 24.1276V30.4498ZM241.774 21.6547H239.193V26.7796C239.193 28.0843 239.645 28.7356 240.558 28.7356C240.972 28.7356 241.319 28.6908 241.599 28.6259L241.664 30.4073C241.21 30.5819 240.601 30.6692 239.844 30.6692C237.995 30.6692 236.889 29.6487 236.889 26.9765V21.6547H235.349V19.8957H236.889V17.9621L239.193 17.2661V19.8934H241.774V21.6547ZM254.193 30.4498H251.849V24.4342C251.849 22.5454 251.135 21.5898 249.721 21.5898C248.505 21.5898 247.372 22.4156 247.372 24.0873V30.4498H245.029V15.0527H247.372V21.3929H247.419C248.158 20.2425 249.228 19.6763 250.594 19.6763C252.828 19.6763 254.193 21.413 254.193 24.1724V30.4498ZM266.917 25.7367H259.877C259.922 27.7352 261.245 28.8631 263.203 28.8631C264.244 28.8631 265.202 28.6886 266.048 28.3641L266.413 29.9933C265.415 30.4275 264.24 30.6445 262.872 30.6445C259.57 30.6445 257.616 28.5588 257.616 25.3249C257.616 22.0889 259.617 19.6562 262.608 19.6562C265.305 19.6562 266.998 21.6547 266.998 24.6737C267.013 25.03 266.986 25.3868 266.917 25.7367ZM264.766 24.065C264.766 22.4357 263.944 21.2854 262.444 21.2854C261.097 21.2854 260.031 22.4581 259.879 24.065H264.766Z" fill="white"/>
</svg>
