<svg width="51" height="51" viewBox="0 0 51 51" fill="none" xmlns="http://www.w3.org/2000/svg">
<g clip-path="url(#clip0_9926_1924)">
<path fill-rule="evenodd" clip-rule="evenodd" d="M47.3571 0H3.63148C1.6279 0 0 1.65067 0 3.67702V47.3229C0 49.3493 1.6279 51 3.63148 51H47.3571C49.3608 51 51 49.3493 51 47.3229V3.67702C51 1.65067 49.3608 0 47.3571 0ZM15.4138 43.7142H7.85491V19.3755H15.4252V43.7142H15.4138ZM11.6344 16.0513C9.2096 16.0513 7.25156 14.0819 7.25156 11.6685C7.25156 9.25514 9.2096 7.28571 11.6344 7.28571C14.0478 7.28571 16.0172 9.25514 16.0172 11.6685C16.0172 14.0933 14.0591 16.0513 11.6344 16.0513ZM43.7484 43.7142H36.1896V31.875C36.1896 29.0517 36.1327 25.4203 32.262 25.4203C28.3233 25.4203 27.7198 28.4939 27.7198 31.6701V43.7142H20.1609V19.3755H27.4125V22.6995H27.5149C28.5281 20.787 30.9984 18.7721 34.6755 18.7721C42.3255 18.7721 43.7484 23.8151 43.7484 30.3724V43.7142Z" fill="#304A60"/>
</g>
<defs>
<clipPath id="clip0_9926_1924">
<rect width="51" height="51" fill="white"/>
</clipPath>
</defs>
</svg>
