<svg width="51" height="51" viewBox="0 0 51 51" fill="none" xmlns="http://www.w3.org/2000/svg">
<circle cx="25.5" cy="25.5" r="25.5" fill="#304A60"/>
<path d="M12.1791 14.5713C10.4822 14.5713 9.10547 15.897 9.10547 17.5311C9.10547 18.4622 9.56011 19.3378 10.3349 19.899L24.2689 29.9624C24.9989 30.4865 25.9978 30.4865 26.7278 29.9624L40.6617 19.899C41.4365 19.3378 41.8912 18.4622 41.8912 17.5311C41.8912 15.897 40.5144 14.5713 38.8175 14.5713H12.1791ZM9.10547 21.4775V34.3034C9.10547 36.4801 10.9433 38.2499 13.2037 38.2499H37.793C40.0534 38.2499 41.8912 36.4801 41.8912 34.3034V21.4775L27.9573 31.5409C26.4973 32.5954 24.4994 32.5954 23.0394 31.5409L9.10547 21.4775Z" fill="#D6E6F3"/>
</svg>
