<svg width="302" height="89" viewBox="0 0 302 89" fill="none" xmlns="http://www.w3.org/2000/svg">
<path d="M291.417 89H10.5848C7.78078 88.9994 5.09156 87.8928 3.10718 85.923C1.12279 83.9531 0.00533519 81.281 0 78.4929V10.5182C0.00414807 7.72874 1.12087 5.05477 3.10519 3.08292C5.08951 1.11107 7.77939 0.00235444 10.5848 0H291.415C294.22 0.00352926 296.909 1.11262 298.894 3.08422C300.878 5.05581 301.995 7.7291 302 10.5182V78.4929C302.004 84.2884 297.248 89 291.417 89Z" fill="#304A60"/>
<path d="M237.904 67.905H242.064V40.0064H237.904V67.905ZM275.374 50.0568L270.605 62.1515H270.462L265.513 50.0568H261.032L268.456 66.961L264.223 76.3646H268.561L280 50.0577L275.374 50.0568ZM251.781 64.736C250.421 64.736 248.519 64.0534 248.519 62.3668C248.519 60.2136 250.887 59.3881 252.929 59.3881C254.757 59.3881 255.62 59.7822 256.73 60.3209C256.407 62.9054 254.184 64.736 251.781 64.736ZM252.284 49.4466C249.272 49.4466 246.153 50.775 244.863 53.718L248.555 55.2609C249.344 53.718 250.813 53.216 252.356 53.216C254.507 53.216 256.694 54.5069 256.73 56.8047V57.0914C255.976 56.6608 254.362 56.015 252.391 56.015C248.41 56.015 244.359 58.2036 244.359 62.2953C244.359 66.0279 247.623 68.4328 251.279 68.4328C254.075 68.4328 255.62 67.1767 256.585 65.7046H256.73V67.8593H260.747V57.1628C260.747 52.2099 257.051 49.4466 252.284 49.4466ZM226.574 53.4529H220.658V43.8907H226.574C229.684 43.8907 231.45 46.4675 231.45 48.6717C231.45 50.8336 229.684 53.4529 226.574 53.4529ZM226.467 40.0071H216.499V67.9057H220.658V57.3365H226.467C231.078 57.3365 235.61 53.9962 235.61 48.6727C235.61 43.3502 231.078 40.0071 226.467 40.0071ZM172.113 64.7407C169.239 64.7407 166.834 62.3313 166.834 59.0251C166.834 55.6804 169.239 53.237 172.113 53.237C174.95 53.237 177.177 55.6806 177.177 59.0251C177.177 62.3313 174.95 64.7407 172.113 64.7407ZM176.889 51.6186H176.746C175.812 50.5043 174.015 49.4977 171.754 49.4977C167.012 49.4977 162.667 53.6686 162.667 59.0251C162.667 64.3451 167.012 68.4794 171.754 68.4794C174.015 68.4794 175.812 67.4725 176.746 66.3228H176.889V67.6879C176.889 71.3203 174.95 73.2606 171.825 73.2606C169.276 73.2606 167.696 71.4274 167.049 69.8817L163.422 71.3915C164.462 73.907 167.227 77 171.826 77C176.711 77 180.841 74.1233 180.841 67.1124V50.0726H176.89L176.889 51.6186ZM183.715 67.9041H187.88V40.0055H183.715V67.9041ZM194.022 58.7009C193.915 55.0337 196.861 53.1647 198.979 53.1647C200.632 53.1647 202.031 53.9919 202.5 55.1775L194.022 58.7009ZM206.952 55.5366C206.162 53.4168 203.756 49.4977 198.835 49.4977C193.95 49.4977 189.891 53.3443 189.891 58.9886C189.891 64.3094 193.915 68.4796 199.301 68.4796C203.647 68.4796 206.162 65.8201 207.204 64.2736L203.971 62.1162C202.893 63.6984 201.422 64.7409 199.301 64.7409C197.183 64.7409 195.674 63.77 194.706 61.8645L207.383 56.616L206.952 55.5366ZM105.942 52.4099V56.4362H115.568C115.28 58.7011 114.526 60.3545 113.377 61.5052C111.976 62.9068 109.785 64.4532 105.942 64.4532C100.016 64.4532 95.383 59.672 95.383 53.7401C95.383 47.8083 100.016 43.0264 105.942 43.0264C109.139 43.0264 111.473 44.2849 113.197 45.9028L116.035 43.062C113.628 40.7616 110.432 39 105.942 39C97.8239 39 91 45.6151 91 53.7401C91 61.8643 97.8239 68.4796 105.942 68.4796C110.323 68.4796 113.628 67.0413 116.214 64.3452C118.872 61.6847 119.698 57.9461 119.698 54.9257C119.698 53.9921 119.626 53.1292 119.482 52.4099H105.942ZM130.643 64.7407C127.769 64.7407 125.29 62.3679 125.29 58.9886C125.29 55.5733 127.769 53.2372 130.643 53.2372C133.515 53.2372 135.994 55.5733 135.994 58.9886C135.994 62.3679 133.515 64.7407 130.643 64.7407ZM130.643 49.4977C125.397 49.4977 121.124 53.4881 121.124 58.9886C121.124 64.4532 125.397 68.4796 130.643 68.4796C135.886 68.4796 140.16 64.4532 140.16 58.9886C140.16 53.4881 135.886 49.4977 130.643 49.4977ZM151.405 64.7407C148.533 64.7407 146.054 62.3679 146.054 58.9886C146.054 55.5733 148.533 53.2372 151.405 53.2372C154.279 53.2372 156.756 55.5733 156.756 58.9886C156.756 62.3679 154.279 64.7407 151.405 64.7407ZM151.405 49.4977C146.161 49.4977 141.888 53.4881 141.888 58.9886C141.888 64.4532 146.161 68.4796 151.405 68.4796C156.65 68.4796 160.924 64.4532 160.924 58.9886C160.924 53.4881 156.65 49.4977 151.405 49.4977Z" fill="white"/>
<path d="M105.374 22.5334H98.9185V24.1408H103.756C103.624 25.4525 103.106 26.4823 102.231 27.2303C101.356 27.9785 100.239 28.3541 98.9185 28.3541C97.4698 28.3541 96.2424 27.8462 95.2365 26.8373C94.2509 25.8075 93.7497 24.5341 93.7497 22.9999C93.7497 21.4657 94.2509 20.1923 95.2365 19.1625C96.2424 18.1537 97.4698 17.6491 98.9185 17.6491C99.662 17.6491 100.371 17.7778 101.021 18.0597C101.671 18.3414 102.193 18.7346 102.601 19.2392L103.828 18.0041C103.271 17.3673 102.566 16.8803 101.691 16.5254C100.817 16.1705 99.9038 16.0001 98.9184 16.0001C96.9857 16.0001 95.347 16.675 94.0088 18.0215C92.6707 19.3712 92 21.0343 92 22.9999C92 24.9655 92.6707 26.6321 94.0088 27.9786C95.3469 29.3248 96.9857 30 98.9184 30C100.948 30 102.566 29.3458 103.811 28.0167C104.907 26.9105 105.467 25.4145 105.467 23.5428C105.467 23.2262 105.429 22.8884 105.374 22.5334ZM107.874 16.299V29.7006H115.65V28.0549H109.586V23.8036H115.056V22.1962H109.586V17.9482H115.65V16.299L107.874 16.299ZM126.554 17.9483V16.299H117.402V17.9483H121.122V29.7005H122.833V17.9483H126.554ZM134.839 16.299H133.128V29.7006H134.839V16.299ZM146.136 17.9483V16.299H136.984V17.9483H140.704V29.7005H142.415V17.9483H146.136ZM163.406 18.0422C162.085 16.6749 160.467 16 158.534 16C156.598 16 154.98 16.6749 153.659 18.0214C152.338 19.3504 151.689 21.0168 151.689 22.9998C151.689 24.9827 152.339 26.6494 153.659 27.9785C154.98 29.3247 156.598 29.9999 158.534 29.9999C160.45 29.9999 162.085 29.3248 163.406 27.9785C164.727 26.6495 165.377 24.9829 165.377 22.9998C165.377 21.0342 164.727 19.371 163.406 18.0422ZM154.887 19.1624C155.872 18.1536 157.082 17.649 158.534 17.649C159.983 17.649 161.193 18.1536 162.161 19.1624C163.147 20.1539 163.631 21.448 163.631 22.9997C163.631 24.555 163.147 25.8456 162.161 26.8372C161.193 27.8461 159.983 28.354 158.534 28.354C157.082 28.354 155.872 27.8461 154.887 26.8372C153.922 25.8248 153.438 24.555 153.438 22.9997C153.438 21.448 153.922 20.1748 154.887 19.1624ZM169.443 21.3543L169.37 18.7691H169.443L176.213 29.7004H178V16.2989H176.289V24.1407L176.361 26.7258H176.289L169.816 16.2989H167.731V29.7004H169.443V21.3543Z" fill="white"/>
<path d="M47.2133 43.1771L22.2337 69.0975C22.2347 69.1029 22.2365 69.1073 22.2374 69.1129C23.0035 71.9275 25.6333 74 28.7542 74C30.0018 74 31.1732 73.6703 32.1777 73.0914L32.2575 73.0457L60.3767 57.183L47.2133 43.1771Z" fill="#EB3131"/>
<path d="M72.4861 38.7639L72.4621 38.7479L60.3222 31.8677L46.645 43.7658L60.3697 57.1814L72.4456 50.3698C74.5627 49.2524 76 47.0704 76 44.5543C76 42.0561 74.5822 39.8849 72.4861 38.7639Z" fill="#F6B60B"/>
<path d="M22.2291 19.901C22.0789 20.4423 22 21.0094 22 21.5982V67.4021C22 67.9898 22.078 68.5588 22.2301 69.0982L48.072 43.8401L22.2291 19.901Z" fill="#5778C5"/>
<path d="M47.393 44.4999L60.3233 31.8629L32.2358 15.9428C31.2149 15.345 30.0233 15 28.7483 15C25.6273 15 22.994 17.0763 22.2278 19.8942L22.2269 19.9013L47.393 44.4999Z" fill="#3BAD49"/>
</svg>
